M48
; DRILL file KiCad 10.0.4 date 2026-07-10T07:10:49
; FORMAT={-:-/ absolute / metric / decimal}
; #@! TF.CreationDate,2026-07-10T07:10:49-04:00
; #@! TF.GenerationSoftware,Kicad,Pcbnew,10.0.4
; #@! TF.FileFunction,Plated,1,2,PTH
FMAT,2
METRIC
; #@! TA.AperFunction,Plated,PTH,ComponentDrill
T1C0.400
; #@! TA.AperFunction,Plated,PTH,ComponentDrill
T2C1.000
%
G90
G05
T2
X13.2Y-10.16
X14.08Y-1.27
X14.08Y-19.05
X16.62Y-1.27
X16.62Y-19.05
X19.16Y-1.27
X19.16Y-19.05
X20.8Y-10.16
X21.7Y-1.27
X21.7Y-19.05
X24.24Y-1.27
X24.24Y-19.05
X26.78Y-1.27
X26.78Y-19.05
X29.32Y-1.27
X29.32Y-19.05
X31.86Y-1.27
X31.86Y-19.05
X34.4Y-1.27
X34.4Y-19.05
T1
X27.375Y-5.16G85X26.375Y-5.16
G05
X26.375Y-15.16G85X27.375Y-15.16
G05
X31.875Y-10.66G85X31.875Y-9.66
G05
M30
