%TF.GenerationSoftware,KiCad,Pcbnew,10.0.4*%
%TF.CreationDate,2026-07-10T07:10:49-04:00*%
%TF.ProjectId,morsekey-shield,6d6f7273-656b-4657-992d-736869656c64,rev?*%
%TF.SameCoordinates,Original*%
%TF.FileFunction,Legend,Bot*%
%TF.FilePolarity,Positive*%
%FSLAX46Y46*%
G04 Gerber Fmt 4.6, Leading zero omitted, Abs format (unit mm)*
G04 Created by KiCad (PCBNEW 10.0.4) date 2026-07-10 07:10:49*
%MOMM*%
%LPD*%
G01*
G04 APERTURE LIST*
%ADD10C,0.150000*%
G04 APERTURE END LIST*
D10*
X35235713Y-10661080D02*
X35235713Y-9561080D01*
X35235713Y-9561080D02*
X34816665Y-9561080D01*
X34816665Y-9561080D02*
X34711903Y-9613461D01*
X34711903Y-9613461D02*
X34659522Y-9665842D01*
X34659522Y-9665842D02*
X34607141Y-9770604D01*
X34607141Y-9770604D02*
X34607141Y-9927747D01*
X34607141Y-9927747D02*
X34659522Y-10032509D01*
X34659522Y-10032509D02*
X34711903Y-10084890D01*
X34711903Y-10084890D02*
X34816665Y-10137271D01*
X34816665Y-10137271D02*
X35235713Y-10137271D01*
X34188094Y-10346795D02*
X33664284Y-10346795D01*
X34292856Y-10661080D02*
X33926189Y-9561080D01*
X33926189Y-9561080D02*
X33559522Y-10661080D01*
X33192856Y-10661080D02*
X33192856Y-9561080D01*
X33192856Y-9561080D02*
X32930951Y-9561080D01*
X32930951Y-9561080D02*
X32773808Y-9613461D01*
X32773808Y-9613461D02*
X32669046Y-9718223D01*
X32669046Y-9718223D02*
X32616665Y-9822985D01*
X32616665Y-9822985D02*
X32564284Y-10032509D01*
X32564284Y-10032509D02*
X32564284Y-10189652D01*
X32564284Y-10189652D02*
X32616665Y-10399176D01*
X32616665Y-10399176D02*
X32669046Y-10503938D01*
X32669046Y-10503938D02*
X32773808Y-10608700D01*
X32773808Y-10608700D02*
X32930951Y-10661080D01*
X32930951Y-10661080D02*
X33192856Y-10661080D01*
X32092856Y-10661080D02*
X32092856Y-9561080D01*
X32092856Y-9561080D02*
X31830951Y-9561080D01*
X31830951Y-9561080D02*
X31673808Y-9613461D01*
X31673808Y-9613461D02*
X31569046Y-9718223D01*
X31569046Y-9718223D02*
X31516665Y-9822985D01*
X31516665Y-9822985D02*
X31464284Y-10032509D01*
X31464284Y-10032509D02*
X31464284Y-10189652D01*
X31464284Y-10189652D02*
X31516665Y-10399176D01*
X31516665Y-10399176D02*
X31569046Y-10503938D01*
X31569046Y-10503938D02*
X31673808Y-10608700D01*
X31673808Y-10608700D02*
X31830951Y-10661080D01*
X31830951Y-10661080D02*
X32092856Y-10661080D01*
X30469046Y-10661080D02*
X30992856Y-10661080D01*
X30992856Y-10661080D02*
X30992856Y-9561080D01*
X30102380Y-10084890D02*
X29735713Y-10084890D01*
X29578570Y-10661080D02*
X30102380Y-10661080D01*
X30102380Y-10661080D02*
X30102380Y-9561080D01*
X30102380Y-9561080D02*
X29578570Y-9561080D01*
X27483332Y-9508700D02*
X28426190Y-10922985D01*
X26278571Y-10661080D02*
X26278571Y-9561080D01*
X25649999Y-10661080D02*
X26121428Y-10032509D01*
X25649999Y-9561080D02*
X26278571Y-10189652D01*
X25178571Y-10084890D02*
X24811904Y-10084890D01*
X24654761Y-10661080D02*
X25178571Y-10661080D01*
X25178571Y-10661080D02*
X25178571Y-9561080D01*
X25178571Y-9561080D02*
X24654761Y-9561080D01*
X23973809Y-10137271D02*
X23973809Y-10661080D01*
X24340476Y-9561080D02*
X23973809Y-10137271D01*
X23973809Y-10137271D02*
X23607142Y-9561080D01*
M02*
